<mxfile host="65bd71144e">
    <diagram id="xYMDRpf6OmGDEBUr7g-y" name="Register">
        <mxGraphModel dx="676" dy="591" grid="1" gridSize="10" guides="1" tooltips="1" connect="1" arrows="1" fold="1" page="1" pageScale="1" pageWidth="850" pageHeight="1100" math="0" shadow="0">
            <root>
                <mxCell id="0"/>
                <mxCell id="1" parent="0"/>
                <mxCell id="5NrimnPIdkj-3UQdEftS-1" value="Proses Register" style="swimlane;whiteSpace=wrap;html=1;" parent="1" vertex="1">
                    <mxGeometry x="80" y="80" width="640" height="960" as="geometry"/>
                </mxCell>
                <mxCell id="5NrimnPIdkj-3UQdEftS-2" value="Mobile" style="swimlane;startSize=20;whiteSpace=wrap;html=1;" parent="5NrimnPIdkj-3UQdEftS-1" vertex="1">
                    <mxGeometry y="20" width="320" height="940" as="geometry"/>
                </mxCell>
                <mxCell id="5NrimnPIdkj-3UQdEftS-3" style="edgeStyle=none;html=1;entryX=0.5;entryY=0;entryDx=0;entryDy=0;" parent="5NrimnPIdkj-3UQdEftS-2" target="5NrimnPIdkj-3UQdEftS-6" edge="1">
                    <mxGeometry relative="1" as="geometry">
                        <mxPoint x="160" y="82" as="sourcePoint"/>
                    </mxGeometry>
                </mxCell>
                <mxCell id="5NrimnPIdkj-3UQdEftS-4" value="Start" style="edgeLabel;html=1;align=center;verticalAlign=middle;resizable=0;points=[];" parent="5NrimnPIdkj-3UQdEftS-3" vertex="1" connectable="0">
                    <mxGeometry x="-0.2567" relative="1" as="geometry">
                        <mxPoint y="3" as="offset"/>
                    </mxGeometry>
                </mxCell>
                <mxCell id="5NrimnPIdkj-3UQdEftS-5" value="" style="edgeStyle=none;html=1;" parent="5NrimnPIdkj-3UQdEftS-2" source="5NrimnPIdkj-3UQdEftS-6" target="5NrimnPIdkj-3UQdEftS-7" edge="1">
                    <mxGeometry relative="1" as="geometry"/>
                </mxCell>
                <mxCell id="5NrimnPIdkj-3UQdEftS-6" value="Menekan tombol lanjutkan" style="rounded=1;whiteSpace=wrap;html=1;fillColor=none;" parent="5NrimnPIdkj-3UQdEftS-2" vertex="1">
                    <mxGeometry x="100" y="129" width="120" height="60" as="geometry"/>
                </mxCell>
                <mxCell id="5NrimnPIdkj-3UQdEftS-7" value="Memasukan nomor handphone" style="whiteSpace=wrap;html=1;fillColor=none;rounded=1;" parent="5NrimnPIdkj-3UQdEftS-2" vertex="1">
                    <mxGeometry x="100" y="219" width="120" height="60" as="geometry"/>
                </mxCell>
                <mxCell id="5NrimnPIdkj-3UQdEftS-8" value="Melengkapi form registrasi" style="whiteSpace=wrap;html=1;fillColor=none;rounded=1;" parent="5NrimnPIdkj-3UQdEftS-2" vertex="1">
                    <mxGeometry x="100" y="319" width="120" height="60" as="geometry"/>
                </mxCell>
                <mxCell id="5NrimnPIdkj-3UQdEftS-9" value="" style="ellipse;html=1;shape=endState;fillColor=#000000;strokeColor=#ff0000;" parent="5NrimnPIdkj-3UQdEftS-2" vertex="1">
                    <mxGeometry x="145" y="860" width="30" height="30" as="geometry"/>
                </mxCell>
                <mxCell id="5NrimnPIdkj-3UQdEftS-10" style="edgeStyle=orthogonalEdgeStyle;rounded=0;html=1;entryX=0.5;entryY=0;entryDx=0;entryDy=0;" parent="5NrimnPIdkj-3UQdEftS-2" source="5NrimnPIdkj-3UQdEftS-11" target="5NrimnPIdkj-3UQdEftS-9" edge="1">
                    <mxGeometry relative="1" as="geometry"/>
                </mxCell>
                <mxCell id="5NrimnPIdkj-3UQdEftS-11" value="" style="html=1;points=[];perimeter=orthogonalPerimeter;fillColor=strokeColor;direction=south;" parent="5NrimnPIdkj-3UQdEftS-2" vertex="1">
                    <mxGeometry x="120" y="820" width="80" height="5" as="geometry"/>
                </mxCell>
                <mxCell id="5NrimnPIdkj-3UQdEftS-12" style="edgeStyle=orthogonalEdgeStyle;rounded=0;html=1;entryX=0;entryY=0.5;entryDx=0;entryDy=0;" parent="5NrimnPIdkj-3UQdEftS-2" source="5NrimnPIdkj-3UQdEftS-13" target="5NrimnPIdkj-3UQdEftS-8" edge="1">
                    <mxGeometry relative="1" as="geometry">
                        <Array as="points">
                            <mxPoint x="60" y="560"/>
                            <mxPoint x="60" y="349"/>
                        </Array>
                    </mxGeometry>
                </mxCell>
                <mxCell id="5NrimnPIdkj-3UQdEftS-13" value="Menampilkan error message" style="rounded=1;whiteSpace=wrap;html=1;fillColor=none;" parent="5NrimnPIdkj-3UQdEftS-2" vertex="1">
                    <mxGeometry x="100" y="529" width="120" height="60" as="geometry"/>
                </mxCell>
                <mxCell id="5NrimnPIdkj-3UQdEftS-14" style="edgeStyle=orthogonalEdgeStyle;rounded=0;html=1;entryX=-0.194;entryY=0.496;entryDx=0;entryDy=0;entryPerimeter=0;" parent="5NrimnPIdkj-3UQdEftS-2" source="5NrimnPIdkj-3UQdEftS-15" target="5NrimnPIdkj-3UQdEftS-11" edge="1">
                    <mxGeometry relative="1" as="geometry"/>
                </mxCell>
                <mxCell id="5NrimnPIdkj-3UQdEftS-15" value="Menampilkan response" style="rounded=1;whiteSpace=wrap;html=1;fillColor=none;" parent="5NrimnPIdkj-3UQdEftS-2" vertex="1">
                    <mxGeometry x="100" y="650" width="120" height="60" as="geometry"/>
                </mxCell>
                <mxCell id="5NrimnPIdkj-3UQdEftS-16" value="" style="edgeStyle=orthogonalEdgeStyle;rounded=0;html=1;exitX=0.5;exitY=1;exitDx=0;exitDy=0;" parent="5NrimnPIdkj-3UQdEftS-2" source="5NrimnPIdkj-3UQdEftS-17" target="5NrimnPIdkj-3UQdEftS-6" edge="1">
                    <mxGeometry relative="1" as="geometry"/>
                </mxCell>
                <mxCell id="5NrimnPIdkj-3UQdEftS-17" value="" style="ellipse;whiteSpace=wrap;html=1;fillColor=#000000;strokeColor=#ff0000;" parent="5NrimnPIdkj-3UQdEftS-2" vertex="1">
                    <mxGeometry x="135" y="30" width="50" height="50" as="geometry"/>
                </mxCell>
                <mxCell id="5NrimnPIdkj-3UQdEftS-18" value="End" style="text;html=1;strokeColor=none;fillColor=none;align=center;verticalAlign=middle;whiteSpace=wrap;rounded=0;" parent="5NrimnPIdkj-3UQdEftS-2" vertex="1">
                    <mxGeometry x="130" y="890" width="60" height="30" as="geometry"/>
                </mxCell>
                <mxCell id="5NrimnPIdkj-3UQdEftS-19" value="API" style="swimlane;startSize=20;whiteSpace=wrap;html=1;" parent="5NrimnPIdkj-3UQdEftS-1" vertex="1">
                    <mxGeometry x="320" y="20" width="320" height="940" as="geometry"/>
                </mxCell>
                <mxCell id="5NrimnPIdkj-3UQdEftS-20" value="generate access token" style="rounded=1;whiteSpace=wrap;html=1;fillColor=none;" parent="5NrimnPIdkj-3UQdEftS-19" vertex="1">
                    <mxGeometry x="100" y="650" width="120" height="60" as="geometry"/>
                </mxCell>
                <mxCell id="5NrimnPIdkj-3UQdEftS-21" style="edgeStyle=orthogonalEdgeStyle;rounded=0;html=1;entryX=0.5;entryY=0;entryDx=0;entryDy=0;" parent="5NrimnPIdkj-3UQdEftS-19" source="5NrimnPIdkj-3UQdEftS-22" target="5NrimnPIdkj-3UQdEftS-23" edge="1">
                    <mxGeometry relative="1" as="geometry"/>
                </mxCell>
                <mxCell id="5NrimnPIdkj-3UQdEftS-22" value="Chek User" style="whiteSpace=wrap;html=1;fillColor=none;rounded=1;" parent="5NrimnPIdkj-3UQdEftS-19" vertex="1">
                    <mxGeometry x="100" y="219" width="120" height="60" as="geometry"/>
                </mxCell>
                <mxCell id="5NrimnPIdkj-3UQdEftS-23" value="" style="rhombus;whiteSpace=wrap;html=1;fillColor=#fff2cc;strokeColor=#d6b656;" parent="5NrimnPIdkj-3UQdEftS-19" vertex="1">
                    <mxGeometry x="131" y="320" width="58" height="58" as="geometry"/>
                </mxCell>
                <mxCell id="5NrimnPIdkj-3UQdEftS-24" style="edgeStyle=orthogonalEdgeStyle;rounded=0;html=1;entryX=0.5;entryY=0;entryDx=0;entryDy=0;" parent="5NrimnPIdkj-3UQdEftS-19" source="5NrimnPIdkj-3UQdEftS-25" target="5NrimnPIdkj-3UQdEftS-28" edge="1">
                    <mxGeometry relative="1" as="geometry"/>
                </mxCell>
                <mxCell id="5NrimnPIdkj-3UQdEftS-25" value="Validasi Input" style="rounded=1;whiteSpace=wrap;html=1;fillColor=none;" parent="5NrimnPIdkj-3UQdEftS-19" vertex="1">
                    <mxGeometry x="100" y="420" width="120" height="60" as="geometry"/>
                </mxCell>
                <mxCell id="5NrimnPIdkj-3UQdEftS-26" style="edgeStyle=orthogonalEdgeStyle;rounded=0;html=1;entryX=0.5;entryY=0;entryDx=0;entryDy=0;" parent="5NrimnPIdkj-3UQdEftS-19" source="5NrimnPIdkj-3UQdEftS-28" target="5NrimnPIdkj-3UQdEftS-20" edge="1">
                    <mxGeometry relative="1" as="geometry"/>
                </mxCell>
                <mxCell id="5NrimnPIdkj-3UQdEftS-27" value="valid" style="edgeLabel;html=1;align=center;verticalAlign=middle;resizable=0;points=[];" parent="5NrimnPIdkj-3UQdEftS-26" vertex="1" connectable="0">
                    <mxGeometry x="-0.1716" relative="1" as="geometry">
                        <mxPoint as="offset"/>
                    </mxGeometry>
                </mxCell>
                <mxCell id="5NrimnPIdkj-3UQdEftS-28" value="" style="rhombus;whiteSpace=wrap;html=1;fillColor=#fff2cc;strokeColor=#d6b656;" parent="5NrimnPIdkj-3UQdEftS-19" vertex="1">
                    <mxGeometry x="131" y="530" width="58" height="58" as="geometry"/>
                </mxCell>
                <mxCell id="5NrimnPIdkj-3UQdEftS-29" style="edgeStyle=orthogonalEdgeStyle;rounded=0;html=1;entryX=0;entryY=0.5;entryDx=0;entryDy=0;" parent="5NrimnPIdkj-3UQdEftS-1" source="5NrimnPIdkj-3UQdEftS-7" target="5NrimnPIdkj-3UQdEftS-22" edge="1">
                    <mxGeometry relative="1" as="geometry"/>
                </mxCell>
                <mxCell id="5NrimnPIdkj-3UQdEftS-30" style="edgeStyle=orthogonalEdgeStyle;rounded=0;html=1;entryX=1;entryY=0.5;entryDx=0;entryDy=0;" parent="5NrimnPIdkj-3UQdEftS-1" source="5NrimnPIdkj-3UQdEftS-23" target="5NrimnPIdkj-3UQdEftS-8" edge="1">
                    <mxGeometry relative="1" as="geometry"/>
                </mxCell>
                <mxCell id="5NrimnPIdkj-3UQdEftS-31" value="not found" style="edgeLabel;html=1;align=center;verticalAlign=middle;resizable=0;points=[];" parent="5NrimnPIdkj-3UQdEftS-30" vertex="1" connectable="0">
                    <mxGeometry x="-0.3247" y="1" relative="1" as="geometry">
                        <mxPoint as="offset"/>
                    </mxGeometry>
                </mxCell>
                <mxCell id="5NrimnPIdkj-3UQdEftS-32" style="edgeStyle=orthogonalEdgeStyle;rounded=0;html=1;entryX=0;entryY=0.5;entryDx=0;entryDy=0;" parent="5NrimnPIdkj-3UQdEftS-1" source="5NrimnPIdkj-3UQdEftS-8" target="5NrimnPIdkj-3UQdEftS-25" edge="1">
                    <mxGeometry relative="1" as="geometry">
                        <Array as="points">
                            <mxPoint x="160" y="470"/>
                        </Array>
                    </mxGeometry>
                </mxCell>
                <mxCell id="5NrimnPIdkj-3UQdEftS-33" style="edgeStyle=orthogonalEdgeStyle;rounded=0;html=1;entryX=1;entryY=0.5;entryDx=0;entryDy=0;" parent="5NrimnPIdkj-3UQdEftS-1" source="5NrimnPIdkj-3UQdEftS-28" target="5NrimnPIdkj-3UQdEftS-13" edge="1">
                    <mxGeometry relative="1" as="geometry"/>
                </mxCell>
                <mxCell id="5NrimnPIdkj-3UQdEftS-34" value="invalid" style="edgeLabel;html=1;align=center;verticalAlign=middle;resizable=0;points=[];" parent="5NrimnPIdkj-3UQdEftS-33" vertex="1" connectable="0">
                    <mxGeometry x="-0.3838" y="-1" relative="1" as="geometry">
                        <mxPoint as="offset"/>
                    </mxGeometry>
                </mxCell>
                <mxCell id="5NrimnPIdkj-3UQdEftS-35" style="edgeStyle=orthogonalEdgeStyle;rounded=0;html=1;entryX=1;entryY=0.5;entryDx=0;entryDy=0;" parent="5NrimnPIdkj-3UQdEftS-1" source="5NrimnPIdkj-3UQdEftS-20" target="5NrimnPIdkj-3UQdEftS-15" edge="1">
                    <mxGeometry relative="1" as="geometry"/>
                </mxCell>
                <mxCell id="5NrimnPIdkj-3UQdEftS-36" style="edgeStyle=orthogonalEdgeStyle;rounded=0;html=1;entryX=-0.267;entryY=0.216;entryDx=0;entryDy=0;entryPerimeter=0;" parent="5NrimnPIdkj-3UQdEftS-1" source="5NrimnPIdkj-3UQdEftS-23" target="5NrimnPIdkj-3UQdEftS-11" edge="1">
                    <mxGeometry relative="1" as="geometry">
                        <Array as="points">
                            <mxPoint x="600" y="369"/>
                            <mxPoint x="600" y="800"/>
                            <mxPoint x="183" y="800"/>
                        </Array>
                    </mxGeometry>
                </mxCell>
                <mxCell id="5NrimnPIdkj-3UQdEftS-37" value="found" style="edgeLabel;html=1;align=center;verticalAlign=middle;resizable=0;points=[];" parent="5NrimnPIdkj-3UQdEftS-36" vertex="1" connectable="0">
                    <mxGeometry x="-0.8651" y="-2" relative="1" as="geometry">
                        <mxPoint x="-15" y="-2" as="offset"/>
                    </mxGeometry>
                </mxCell>
            </root>
        </mxGraphModel>
    </diagram>
    <diagram id="5POT48N6JLN6g2_w27yh" name="Login">
        <mxGraphModel dx="676" dy="591" grid="1" gridSize="10" guides="1" tooltips="1" connect="1" arrows="1" fold="1" page="1" pageScale="1" pageWidth="850" pageHeight="1100" math="0" shadow="0">
            <root>
                <mxCell id="0"/>
                <mxCell id="1" parent="0"/>
                <mxCell id="2" value="Proses Login" style="swimlane;whiteSpace=wrap;html=1;" parent="1" vertex="1">
                    <mxGeometry x="80" y="80" width="640" height="960" as="geometry"/>
                </mxCell>
                <mxCell id="3" value="Mobile" style="swimlane;startSize=20;whiteSpace=wrap;html=1;" parent="2" vertex="1">
                    <mxGeometry y="20" width="320" height="940" as="geometry"/>
                </mxCell>
                <mxCell id="7" style="edgeStyle=none;html=1;entryX=0.5;entryY=0;entryDx=0;entryDy=0;" parent="3" target="6" edge="1">
                    <mxGeometry relative="1" as="geometry">
                        <mxPoint x="160" y="82" as="sourcePoint"/>
                    </mxGeometry>
                </mxCell>
                <mxCell id="8" value="Start" style="edgeLabel;html=1;align=center;verticalAlign=middle;resizable=0;points=[];" parent="7" vertex="1" connectable="0">
                    <mxGeometry x="-0.2567" relative="1" as="geometry">
                        <mxPoint y="3" as="offset"/>
                    </mxGeometry>
                </mxCell>
                <mxCell id="10" value="" style="edgeStyle=none;html=1;" parent="3" source="6" target="9" edge="1">
                    <mxGeometry relative="1" as="geometry"/>
                </mxCell>
                <mxCell id="6" value="Menekan tombol lanjutkan" style="rounded=1;whiteSpace=wrap;html=1;fillColor=none;" parent="3" vertex="1">
                    <mxGeometry x="100" y="129" width="120" height="60" as="geometry"/>
                </mxCell>
                <mxCell id="9" value="Memasukan nomor handphone" style="whiteSpace=wrap;html=1;fillColor=none;rounded=1;" parent="3" vertex="1">
                    <mxGeometry x="100" y="219" width="120" height="60" as="geometry"/>
                </mxCell>
                <mxCell id="11" value="Memasukan PIN" style="whiteSpace=wrap;html=1;fillColor=none;rounded=1;" parent="3" vertex="1">
                    <mxGeometry x="100" y="319" width="120" height="60" as="geometry"/>
                </mxCell>
                <mxCell id="34" value="" style="ellipse;html=1;shape=endState;fillColor=#000000;strokeColor=#ff0000;" parent="3" vertex="1">
                    <mxGeometry x="145" y="860" width="30" height="30" as="geometry"/>
                </mxCell>
                <mxCell id="49" style="edgeStyle=orthogonalEdgeStyle;rounded=0;html=1;entryX=0.5;entryY=0;entryDx=0;entryDy=0;" parent="3" source="36" target="34" edge="1">
                    <mxGeometry relative="1" as="geometry"/>
                </mxCell>
                <mxCell id="36" value="" style="html=1;points=[];perimeter=orthogonalPerimeter;fillColor=strokeColor;direction=south;" parent="3" vertex="1">
                    <mxGeometry x="120" y="820" width="80" height="5" as="geometry"/>
                </mxCell>
                <mxCell id="56" style="edgeStyle=orthogonalEdgeStyle;rounded=0;html=1;entryX=0;entryY=0.5;entryDx=0;entryDy=0;" parent="3" source="42" target="11" edge="1">
                    <mxGeometry relative="1" as="geometry">
                        <Array as="points">
                            <mxPoint x="60" y="560"/>
                            <mxPoint x="60" y="349"/>
                        </Array>
                    </mxGeometry>
                </mxCell>
                <mxCell id="42" value="Menampilkan error message" style="rounded=1;whiteSpace=wrap;html=1;fillColor=none;" parent="3" vertex="1">
                    <mxGeometry x="100" y="529" width="120" height="60" as="geometry"/>
                </mxCell>
                <mxCell id="55" style="edgeStyle=orthogonalEdgeStyle;rounded=0;html=1;entryX=-0.194;entryY=0.496;entryDx=0;entryDy=0;entryPerimeter=0;" parent="3" source="47" target="36" edge="1">
                    <mxGeometry relative="1" as="geometry"/>
                </mxCell>
                <mxCell id="47" value="Menampilkan response" style="rounded=1;whiteSpace=wrap;html=1;fillColor=none;" parent="3" vertex="1">
                    <mxGeometry x="100" y="650" width="120" height="60" as="geometry"/>
                </mxCell>
                <mxCell id="53" value="" style="edgeStyle=orthogonalEdgeStyle;rounded=0;html=1;exitX=0.5;exitY=1;exitDx=0;exitDy=0;" parent="3" source="52" target="6" edge="1">
                    <mxGeometry relative="1" as="geometry"/>
                </mxCell>
                <mxCell id="52" value="" style="ellipse;whiteSpace=wrap;html=1;fillColor=#000000;strokeColor=#ff0000;" parent="3" vertex="1">
                    <mxGeometry x="135" y="30" width="50" height="50" as="geometry"/>
                </mxCell>
                <mxCell id="54" value="End" style="text;html=1;strokeColor=none;fillColor=none;align=center;verticalAlign=middle;whiteSpace=wrap;rounded=0;" parent="3" vertex="1">
                    <mxGeometry x="130" y="890" width="60" height="30" as="geometry"/>
                </mxCell>
                <mxCell id="4" value="API" style="swimlane;startSize=20;whiteSpace=wrap;html=1;" parent="2" vertex="1">
                    <mxGeometry x="320" y="20" width="320" height="940" as="geometry"/>
                </mxCell>
                <mxCell id="22" value="generate access token" style="rounded=1;whiteSpace=wrap;html=1;fillColor=none;" parent="4" vertex="1">
                    <mxGeometry x="100" y="650" width="120" height="60" as="geometry"/>
                </mxCell>
                <mxCell id="31" style="edgeStyle=orthogonalEdgeStyle;rounded=0;html=1;entryX=0.5;entryY=0;entryDx=0;entryDy=0;" parent="4" source="28" target="30" edge="1">
                    <mxGeometry relative="1" as="geometry"/>
                </mxCell>
                <mxCell id="28" value="Chek User" style="whiteSpace=wrap;html=1;fillColor=none;rounded=1;" parent="4" vertex="1">
                    <mxGeometry x="100" y="219" width="120" height="60" as="geometry"/>
                </mxCell>
                <mxCell id="30" value="" style="rhombus;whiteSpace=wrap;html=1;fillColor=#fff2cc;strokeColor=#d6b656;" parent="4" vertex="1">
                    <mxGeometry x="131" y="320" width="58" height="58" as="geometry"/>
                </mxCell>
                <mxCell id="41" style="edgeStyle=orthogonalEdgeStyle;rounded=0;html=1;entryX=0.5;entryY=0;entryDx=0;entryDy=0;" parent="4" source="38" target="40" edge="1">
                    <mxGeometry relative="1" as="geometry"/>
                </mxCell>
                <mxCell id="38" value="Validasi Input" style="rounded=1;whiteSpace=wrap;html=1;fillColor=none;" parent="4" vertex="1">
                    <mxGeometry x="100" y="420" width="120" height="60" as="geometry"/>
                </mxCell>
                <mxCell id="45" style="edgeStyle=orthogonalEdgeStyle;rounded=0;html=1;entryX=0.5;entryY=0;entryDx=0;entryDy=0;" parent="4" source="40" target="22" edge="1">
                    <mxGeometry relative="1" as="geometry"/>
                </mxCell>
                <mxCell id="46" value="valid" style="edgeLabel;html=1;align=center;verticalAlign=middle;resizable=0;points=[];" parent="45" vertex="1" connectable="0">
                    <mxGeometry x="-0.1716" relative="1" as="geometry">
                        <mxPoint as="offset"/>
                    </mxGeometry>
                </mxCell>
                <mxCell id="40" value="" style="rhombus;whiteSpace=wrap;html=1;fillColor=#fff2cc;strokeColor=#d6b656;" parent="4" vertex="1">
                    <mxGeometry x="131" y="530" width="58" height="58" as="geometry"/>
                </mxCell>
                <mxCell id="29" style="edgeStyle=orthogonalEdgeStyle;rounded=0;html=1;entryX=0;entryY=0.5;entryDx=0;entryDy=0;" parent="2" source="9" target="28" edge="1">
                    <mxGeometry relative="1" as="geometry"/>
                </mxCell>
                <mxCell id="32" style="edgeStyle=orthogonalEdgeStyle;rounded=0;html=1;entryX=1;entryY=0.5;entryDx=0;entryDy=0;" parent="2" source="30" target="11" edge="1">
                    <mxGeometry relative="1" as="geometry"/>
                </mxCell>
                <mxCell id="33" value="found" style="edgeLabel;html=1;align=center;verticalAlign=middle;resizable=0;points=[];" parent="32" vertex="1" connectable="0">
                    <mxGeometry x="-0.3247" y="1" relative="1" as="geometry">
                        <mxPoint as="offset"/>
                    </mxGeometry>
                </mxCell>
                <mxCell id="39" style="edgeStyle=orthogonalEdgeStyle;rounded=0;html=1;entryX=0;entryY=0.5;entryDx=0;entryDy=0;" parent="2" source="11" target="38" edge="1">
                    <mxGeometry relative="1" as="geometry">
                        <Array as="points">
                            <mxPoint x="160" y="470"/>
                        </Array>
                    </mxGeometry>
                </mxCell>
                <mxCell id="43" style="edgeStyle=orthogonalEdgeStyle;rounded=0;html=1;entryX=1;entryY=0.5;entryDx=0;entryDy=0;" parent="2" source="40" target="42" edge="1">
                    <mxGeometry relative="1" as="geometry"/>
                </mxCell>
                <mxCell id="44" value="invalid" style="edgeLabel;html=1;align=center;verticalAlign=middle;resizable=0;points=[];" parent="43" vertex="1" connectable="0">
                    <mxGeometry x="-0.3838" y="-1" relative="1" as="geometry">
                        <mxPoint as="offset"/>
                    </mxGeometry>
                </mxCell>
                <mxCell id="48" style="edgeStyle=orthogonalEdgeStyle;rounded=0;html=1;entryX=1;entryY=0.5;entryDx=0;entryDy=0;" parent="2" source="22" target="47" edge="1">
                    <mxGeometry relative="1" as="geometry"/>
                </mxCell>
                <mxCell id="57" style="edgeStyle=orthogonalEdgeStyle;rounded=0;html=1;entryX=-0.267;entryY=0.216;entryDx=0;entryDy=0;entryPerimeter=0;" parent="2" source="30" target="36" edge="1">
                    <mxGeometry relative="1" as="geometry">
                        <Array as="points">
                            <mxPoint x="600" y="369"/>
                            <mxPoint x="600" y="800"/>
                            <mxPoint x="183" y="800"/>
                        </Array>
                    </mxGeometry>
                </mxCell>
                <mxCell id="58" value="not found" style="edgeLabel;html=1;align=center;verticalAlign=middle;resizable=0;points=[];" parent="57" vertex="1" connectable="0">
                    <mxGeometry x="-0.8651" y="-2" relative="1" as="geometry">
                        <mxPoint x="-15" y="-2" as="offset"/>
                    </mxGeometry>
                </mxCell>
            </root>
        </mxGraphModel>
    </diagram>
    <diagram id="HBCdhZih2Jx_T4wi-jC_" name="Top-Up">
        <mxGraphModel dx="676" dy="591" grid="1" gridSize="10" guides="1" tooltips="1" connect="1" arrows="1" fold="1" page="1" pageScale="1" pageWidth="850" pageHeight="1100" math="0" shadow="0">
            <root>
                <mxCell id="0"/>
                <mxCell id="1" parent="0"/>
                <mxCell id="sqf8rdVO9tudh8e3aF13-1" value="Proses Top-Up" style="swimlane;whiteSpace=wrap;html=1;" parent="1" vertex="1">
                    <mxGeometry x="80" y="80" width="960" height="920" as="geometry"/>
                </mxCell>
                <mxCell id="sqf8rdVO9tudh8e3aF13-2" value="Mobile" style="swimlane;startSize=20;whiteSpace=wrap;html=1;" parent="sqf8rdVO9tudh8e3aF13-1" vertex="1">
                    <mxGeometry y="20" width="320" height="900" as="geometry"/>
                </mxCell>
                <mxCell id="sqf8rdVO9tudh8e3aF13-3" style="edgeStyle=none;html=1;entryX=0.5;entryY=0;entryDx=0;entryDy=0;" parent="sqf8rdVO9tudh8e3aF13-2" target="sqf8rdVO9tudh8e3aF13-6" edge="1">
                    <mxGeometry relative="1" as="geometry">
                        <mxPoint x="160" y="82" as="sourcePoint"/>
                    </mxGeometry>
                </mxCell>
                <mxCell id="sqf8rdVO9tudh8e3aF13-4" value="Start" style="edgeLabel;html=1;align=center;verticalAlign=middle;resizable=0;points=[];" parent="sqf8rdVO9tudh8e3aF13-3" vertex="1" connectable="0">
                    <mxGeometry x="-0.2567" relative="1" as="geometry">
                        <mxPoint y="3" as="offset"/>
                    </mxGeometry>
                </mxCell>
                <mxCell id="sqf8rdVO9tudh8e3aF13-5" value="" style="edgeStyle=none;html=1;" parent="sqf8rdVO9tudh8e3aF13-2" source="sqf8rdVO9tudh8e3aF13-6" target="sqf8rdVO9tudh8e3aF13-7" edge="1">
                    <mxGeometry relative="1" as="geometry"/>
                </mxCell>
                <mxCell id="sqf8rdVO9tudh8e3aF13-6" value="Login" style="rounded=1;whiteSpace=wrap;html=1;fillColor=none;" parent="sqf8rdVO9tudh8e3aF13-2" vertex="1">
                    <mxGeometry x="100" y="129" width="120" height="60" as="geometry"/>
                </mxCell>
                <mxCell id="sqf8rdVO9tudh8e3aF13-39" style="edgeStyle=none;html=1;entryX=0.5;entryY=0;entryDx=0;entryDy=0;" parent="sqf8rdVO9tudh8e3aF13-2" source="sqf8rdVO9tudh8e3aF13-7" target="sqf8rdVO9tudh8e3aF13-38" edge="1">
                    <mxGeometry relative="1" as="geometry"/>
                </mxCell>
                <mxCell id="sqf8rdVO9tudh8e3aF13-7" value="Menekan tombol top-up" style="whiteSpace=wrap;html=1;fillColor=none;rounded=1;" parent="sqf8rdVO9tudh8e3aF13-2" vertex="1">
                    <mxGeometry x="100" y="219" width="120" height="60" as="geometry"/>
                </mxCell>
                <mxCell id="sqf8rdVO9tudh8e3aF13-9" value="" style="ellipse;html=1;shape=endState;fillColor=#000000;strokeColor=#ff0000;" parent="sqf8rdVO9tudh8e3aF13-2" vertex="1">
                    <mxGeometry x="145" y="809" width="30" height="30" as="geometry"/>
                </mxCell>
                <mxCell id="sqf8rdVO9tudh8e3aF13-16" value="" style="edgeStyle=orthogonalEdgeStyle;rounded=0;html=1;exitX=0.5;exitY=1;exitDx=0;exitDy=0;" parent="sqf8rdVO9tudh8e3aF13-2" source="sqf8rdVO9tudh8e3aF13-17" target="sqf8rdVO9tudh8e3aF13-6" edge="1">
                    <mxGeometry relative="1" as="geometry"/>
                </mxCell>
                <mxCell id="sqf8rdVO9tudh8e3aF13-17" value="" style="ellipse;whiteSpace=wrap;html=1;fillColor=#000000;strokeColor=#ff0000;" parent="sqf8rdVO9tudh8e3aF13-2" vertex="1">
                    <mxGeometry x="135" y="30" width="50" height="50" as="geometry"/>
                </mxCell>
                <mxCell id="sqf8rdVO9tudh8e3aF13-18" value="End" style="text;html=1;strokeColor=none;fillColor=none;align=center;verticalAlign=middle;whiteSpace=wrap;rounded=0;" parent="sqf8rdVO9tudh8e3aF13-2" vertex="1">
                    <mxGeometry x="130" y="839" width="60" height="30" as="geometry"/>
                </mxCell>
                <mxCell id="xCmeTbQ0YX4_bjSPdv26-1" style="edgeStyle=none;html=1;entryX=0.5;entryY=0;entryDx=0;entryDy=0;" parent="sqf8rdVO9tudh8e3aF13-2" source="sqf8rdVO9tudh8e3aF13-38" target="3-6C4SmH8PYOub_v9AP--11" edge="1">
                    <mxGeometry relative="1" as="geometry"/>
                </mxCell>
                <mxCell id="sqf8rdVO9tudh8e3aF13-38" value="Mengisi form top-up" style="whiteSpace=wrap;html=1;fillColor=none;rounded=1;" parent="sqf8rdVO9tudh8e3aF13-2" vertex="1">
                    <mxGeometry x="100" y="310" width="120" height="60" as="geometry"/>
                </mxCell>
                <mxCell id="3-6C4SmH8PYOub_v9AP--11" value="Menekan tombol lanjutkan" style="whiteSpace=wrap;html=1;fillColor=none;rounded=1;" parent="sqf8rdVO9tudh8e3aF13-2" vertex="1">
                    <mxGeometry x="100" y="400" width="120" height="60" as="geometry"/>
                </mxCell>
                <mxCell id="tCj_TUN1RZDb1iDFhxiW-4" style="edgeStyle=orthogonalEdgeStyle;html=1;entryX=-0.234;entryY=0.786;entryDx=0;entryDy=0;entryPerimeter=0;rounded=0;" parent="sqf8rdVO9tudh8e3aF13-2" source="hn02Mun4QYDTexIspGYg-3" target="tCj_TUN1RZDb1iDFhxiW-1" edge="1">
                    <mxGeometry relative="1" as="geometry">
                        <Array as="points">
                            <mxPoint x="70" y="540"/>
                            <mxPoint x="70" y="720"/>
                            <mxPoint x="137" y="720"/>
                        </Array>
                    </mxGeometry>
                </mxCell>
                <mxCell id="hn02Mun4QYDTexIspGYg-3" value="Meampilkan error message" style="whiteSpace=wrap;html=1;fillColor=none;rounded=1;" parent="sqf8rdVO9tudh8e3aF13-2" vertex="1">
                    <mxGeometry x="100" y="510" width="120" height="60" as="geometry"/>
                </mxCell>
                <mxCell id="tCj_TUN1RZDb1iDFhxiW-2" style="edgeStyle=none;html=1;entryX=-0.044;entryY=0.505;entryDx=0;entryDy=0;entryPerimeter=0;" parent="sqf8rdVO9tudh8e3aF13-2" source="hn02Mun4QYDTexIspGYg-10" target="tCj_TUN1RZDb1iDFhxiW-1" edge="1">
                    <mxGeometry relative="1" as="geometry">
                        <mxPoint x="160" y="770" as="targetPoint"/>
                    </mxGeometry>
                </mxCell>
                <mxCell id="hn02Mun4QYDTexIspGYg-10" value="Menampilkan response" style="whiteSpace=wrap;html=1;fillColor=none;rounded=1;" parent="sqf8rdVO9tudh8e3aF13-2" vertex="1">
                    <mxGeometry x="100" y="620" width="120" height="60" as="geometry"/>
                </mxCell>
                <mxCell id="tCj_TUN1RZDb1iDFhxiW-3" style="edgeStyle=none;html=1;entryX=0.5;entryY=0;entryDx=0;entryDy=0;" parent="sqf8rdVO9tudh8e3aF13-2" source="tCj_TUN1RZDb1iDFhxiW-1" target="sqf8rdVO9tudh8e3aF13-9" edge="1">
                    <mxGeometry relative="1" as="geometry"/>
                </mxCell>
                <mxCell id="tCj_TUN1RZDb1iDFhxiW-1" value="" style="html=1;points=[];perimeter=orthogonalPerimeter;fillColor=strokeColor;direction=south;" parent="sqf8rdVO9tudh8e3aF13-2" vertex="1">
                    <mxGeometry x="120" y="773" width="80" height="5" as="geometry"/>
                </mxCell>
                <mxCell id="3-6C4SmH8PYOub_v9AP--1" value="API" style="swimlane;startSize=20;whiteSpace=wrap;html=1;" parent="1" vertex="1">
                    <mxGeometry x="400" y="100" width="320" height="900" as="geometry"/>
                </mxCell>
                <mxCell id="hn02Mun4QYDTexIspGYg-2" style="edgeStyle=none;html=1;entryX=0.5;entryY=0;entryDx=0;entryDy=0;" parent="3-6C4SmH8PYOub_v9AP--1" source="xCmeTbQ0YX4_bjSPdv26-2" target="hn02Mun4QYDTexIspGYg-1" edge="1">
                    <mxGeometry relative="1" as="geometry"/>
                </mxCell>
                <mxCell id="xCmeTbQ0YX4_bjSPdv26-2" value="Validasi input" style="whiteSpace=wrap;html=1;fillColor=none;rounded=1;" parent="3-6C4SmH8PYOub_v9AP--1" vertex="1">
                    <mxGeometry x="100" y="400" width="120" height="60" as="geometry"/>
                </mxCell>
                <mxCell id="hn02Mun4QYDTexIspGYg-1" value="" style="rhombus;whiteSpace=wrap;html=1;fillColor=#fff2cc;strokeColor=#d6b656;" parent="3-6C4SmH8PYOub_v9AP--1" vertex="1">
                    <mxGeometry x="131" y="510" width="58" height="58" as="geometry"/>
                </mxCell>
                <mxCell id="hn02Mun4QYDTexIspGYg-5" value="Menambahkan data ke database" style="whiteSpace=wrap;html=1;fillColor=none;rounded=1;" parent="3-6C4SmH8PYOub_v9AP--1" vertex="1">
                    <mxGeometry x="100" y="620" width="120" height="60" as="geometry"/>
                </mxCell>
                <mxCell id="xCmeTbQ0YX4_bjSPdv26-3" style="edgeStyle=none;html=1;entryX=0;entryY=0.5;entryDx=0;entryDy=0;" parent="1" source="3-6C4SmH8PYOub_v9AP--11" target="xCmeTbQ0YX4_bjSPdv26-2" edge="1">
                    <mxGeometry relative="1" as="geometry"/>
                </mxCell>
                <mxCell id="hn02Mun4QYDTexIspGYg-4" style="edgeStyle=none;html=1;entryX=1;entryY=0.5;entryDx=0;entryDy=0;" parent="1" source="hn02Mun4QYDTexIspGYg-1" target="hn02Mun4QYDTexIspGYg-3" edge="1">
                    <mxGeometry relative="1" as="geometry"/>
                </mxCell>
                <mxCell id="hn02Mun4QYDTexIspGYg-7" value="Tidak valid" style="edgeLabel;html=1;align=center;verticalAlign=middle;resizable=0;points=[];" parent="hn02Mun4QYDTexIspGYg-4" vertex="1" connectable="0">
                    <mxGeometry x="-0.5266" y="-1" relative="1" as="geometry">
                        <mxPoint as="offset"/>
                    </mxGeometry>
                </mxCell>
                <mxCell id="hn02Mun4QYDTexIspGYg-11" style="edgeStyle=none;html=1;entryX=1;entryY=0.5;entryDx=0;entryDy=0;" parent="1" source="hn02Mun4QYDTexIspGYg-5" target="hn02Mun4QYDTexIspGYg-10" edge="1">
                    <mxGeometry relative="1" as="geometry"/>
                </mxCell>
                <mxCell id="TC69sDhjlxv4tiARXUqU-1" value="Midtrans" style="swimlane;startSize=20;whiteSpace=wrap;html=1;" parent="1" vertex="1">
                    <mxGeometry x="720" y="100" width="320" height="900" as="geometry"/>
                </mxCell>
                <mxCell id="TC69sDhjlxv4tiARXUqU-12" style="edgeStyle=orthogonalEdgeStyle;rounded=0;html=1;entryX=0.5;entryY=0;entryDx=0;entryDy=0;" parent="TC69sDhjlxv4tiARXUqU-1" source="TC69sDhjlxv4tiARXUqU-9" target="TC69sDhjlxv4tiARXUqU-11" edge="1">
                    <mxGeometry relative="1" as="geometry"/>
                </mxCell>
                <mxCell id="TC69sDhjlxv4tiARXUqU-9" value="Charging" style="whiteSpace=wrap;html=1;fillColor=none;rounded=1;" parent="TC69sDhjlxv4tiARXUqU-1" vertex="1">
                    <mxGeometry x="100" y="509" width="120" height="60" as="geometry"/>
                </mxCell>
                <mxCell id="TC69sDhjlxv4tiARXUqU-11" value="Return Response" style="whiteSpace=wrap;html=1;fillColor=none;rounded=1;" parent="TC69sDhjlxv4tiARXUqU-1" vertex="1">
                    <mxGeometry x="100" y="620" width="120" height="60" as="geometry"/>
                </mxCell>
                <mxCell id="TC69sDhjlxv4tiARXUqU-10" style="edgeStyle=orthogonalEdgeStyle;rounded=0;html=1;entryX=0;entryY=0.5;entryDx=0;entryDy=0;" parent="1" source="hn02Mun4QYDTexIspGYg-1" target="TC69sDhjlxv4tiARXUqU-9" edge="1">
                    <mxGeometry relative="1" as="geometry"/>
                </mxCell>
                <mxCell id="TC69sDhjlxv4tiARXUqU-14" value="Valid" style="edgeLabel;html=1;align=center;verticalAlign=middle;resizable=0;points=[];" parent="TC69sDhjlxv4tiARXUqU-10" vertex="1" connectable="0">
                    <mxGeometry x="-0.6517" relative="1" as="geometry">
                        <mxPoint as="offset"/>
                    </mxGeometry>
                </mxCell>
                <mxCell id="TC69sDhjlxv4tiARXUqU-13" style="edgeStyle=orthogonalEdgeStyle;rounded=0;html=1;entryX=1;entryY=0.5;entryDx=0;entryDy=0;" parent="1" source="TC69sDhjlxv4tiARXUqU-11" target="hn02Mun4QYDTexIspGYg-5" edge="1">
                    <mxGeometry relative="1" as="geometry"/>
                </mxCell>
            </root>
        </mxGraphModel>
    </diagram>
    <diagram id="EjPv5xlUypH_tzkog7WO" name="Cek Status Top-Up">
        <mxGraphModel dx="1229" dy="1075" grid="1" gridSize="10" guides="1" tooltips="1" connect="1" arrows="1" fold="1" page="1" pageScale="1" pageWidth="850" pageHeight="1100" math="0" shadow="0">
            <root>
                <mxCell id="0"/>
                <mxCell id="1" parent="0"/>
                <mxCell id="qAOaCtNwMMRndqT1xe5G-1" value="Proses&amp;nbsp;Cek Status Top-Up" style="swimlane;whiteSpace=wrap;html=1;" vertex="1" parent="1">
                    <mxGeometry x="80" y="80" width="960" height="800" as="geometry"/>
                </mxCell>
                <mxCell id="qAOaCtNwMMRndqT1xe5G-2" value="Mobile" style="swimlane;startSize=20;whiteSpace=wrap;html=1;" vertex="1" parent="qAOaCtNwMMRndqT1xe5G-1">
                    <mxGeometry y="20" width="320" height="780" as="geometry"/>
                </mxCell>
                <mxCell id="qAOaCtNwMMRndqT1xe5G-3" style="edgeStyle=none;html=1;entryX=0.5;entryY=0;entryDx=0;entryDy=0;" edge="1" parent="qAOaCtNwMMRndqT1xe5G-2" target="qAOaCtNwMMRndqT1xe5G-6">
                    <mxGeometry relative="1" as="geometry">
                        <mxPoint x="160" y="82" as="sourcePoint"/>
                    </mxGeometry>
                </mxCell>
                <mxCell id="qAOaCtNwMMRndqT1xe5G-4" value="Start" style="edgeLabel;html=1;align=center;verticalAlign=middle;resizable=0;points=[];" vertex="1" connectable="0" parent="qAOaCtNwMMRndqT1xe5G-3">
                    <mxGeometry x="-0.2567" relative="1" as="geometry">
                        <mxPoint y="3" as="offset"/>
                    </mxGeometry>
                </mxCell>
                <mxCell id="qAOaCtNwMMRndqT1xe5G-5" value="" style="edgeStyle=none;html=1;" edge="1" parent="qAOaCtNwMMRndqT1xe5G-2" source="qAOaCtNwMMRndqT1xe5G-6" target="qAOaCtNwMMRndqT1xe5G-8">
                    <mxGeometry relative="1" as="geometry"/>
                </mxCell>
                <mxCell id="qAOaCtNwMMRndqT1xe5G-6" value="Login" style="rounded=1;whiteSpace=wrap;html=1;fillColor=none;" vertex="1" parent="qAOaCtNwMMRndqT1xe5G-2">
                    <mxGeometry x="100" y="129" width="120" height="60" as="geometry"/>
                </mxCell>
                <mxCell id="qAOaCtNwMMRndqT1xe5G-7" style="edgeStyle=none;html=1;entryX=0.5;entryY=0;entryDx=0;entryDy=0;" edge="1" parent="qAOaCtNwMMRndqT1xe5G-2" source="qAOaCtNwMMRndqT1xe5G-8" target="qAOaCtNwMMRndqT1xe5G-14">
                    <mxGeometry relative="1" as="geometry"/>
                </mxCell>
                <mxCell id="qAOaCtNwMMRndqT1xe5G-8" value="Top-Up" style="whiteSpace=wrap;html=1;fillColor=none;rounded=1;" vertex="1" parent="qAOaCtNwMMRndqT1xe5G-2">
                    <mxGeometry x="100" y="219" width="120" height="60" as="geometry"/>
                </mxCell>
                <mxCell id="qAOaCtNwMMRndqT1xe5G-9" value="" style="ellipse;html=1;shape=endState;fillColor=#000000;strokeColor=#ff0000;" vertex="1" parent="qAOaCtNwMMRndqT1xe5G-2">
                    <mxGeometry x="145" y="686" width="30" height="30" as="geometry"/>
                </mxCell>
                <mxCell id="qAOaCtNwMMRndqT1xe5G-10" value="" style="edgeStyle=orthogonalEdgeStyle;rounded=0;html=1;exitX=0.5;exitY=1;exitDx=0;exitDy=0;" edge="1" parent="qAOaCtNwMMRndqT1xe5G-2" source="qAOaCtNwMMRndqT1xe5G-11" target="qAOaCtNwMMRndqT1xe5G-6">
                    <mxGeometry relative="1" as="geometry"/>
                </mxCell>
                <mxCell id="qAOaCtNwMMRndqT1xe5G-11" value="" style="ellipse;whiteSpace=wrap;html=1;fillColor=#000000;strokeColor=#ff0000;" vertex="1" parent="qAOaCtNwMMRndqT1xe5G-2">
                    <mxGeometry x="135" y="30" width="50" height="50" as="geometry"/>
                </mxCell>
                <mxCell id="qAOaCtNwMMRndqT1xe5G-12" value="End" style="text;html=1;strokeColor=none;fillColor=none;align=center;verticalAlign=middle;whiteSpace=wrap;rounded=0;" vertex="1" parent="qAOaCtNwMMRndqT1xe5G-2">
                    <mxGeometry x="130" y="716" width="60" height="30" as="geometry"/>
                </mxCell>
                <mxCell id="qAOaCtNwMMRndqT1xe5G-14" value="Mengklik tombol cek status pembayaran" style="whiteSpace=wrap;html=1;fillColor=none;rounded=1;" vertex="1" parent="qAOaCtNwMMRndqT1xe5G-2">
                    <mxGeometry x="100" y="310" width="120" height="60" as="geometry"/>
                </mxCell>
                <mxCell id="qAOaCtNwMMRndqT1xe5G-16" style="edgeStyle=orthogonalEdgeStyle;html=1;entryX=-0.234;entryY=0.786;entryDx=0;entryDy=0;entryPerimeter=0;rounded=0;" edge="1" parent="qAOaCtNwMMRndqT1xe5G-2" source="qAOaCtNwMMRndqT1xe5G-17" target="qAOaCtNwMMRndqT1xe5G-21">
                    <mxGeometry relative="1" as="geometry">
                        <Array as="points">
                            <mxPoint x="70" y="451"/>
                            <mxPoint x="70" y="620"/>
                            <mxPoint x="137" y="620"/>
                        </Array>
                    </mxGeometry>
                </mxCell>
                <mxCell id="qAOaCtNwMMRndqT1xe5G-17" value="Meampilkan error message" style="whiteSpace=wrap;html=1;fillColor=none;rounded=1;" vertex="1" parent="qAOaCtNwMMRndqT1xe5G-2">
                    <mxGeometry x="100" y="421" width="120" height="60" as="geometry"/>
                </mxCell>
                <mxCell id="qAOaCtNwMMRndqT1xe5G-18" style="edgeStyle=none;html=1;entryX=-0.044;entryY=0.505;entryDx=0;entryDy=0;entryPerimeter=0;" edge="1" parent="qAOaCtNwMMRndqT1xe5G-2" source="qAOaCtNwMMRndqT1xe5G-19" target="qAOaCtNwMMRndqT1xe5G-21">
                    <mxGeometry relative="1" as="geometry">
                        <mxPoint x="160" y="770" as="targetPoint"/>
                    </mxGeometry>
                </mxCell>
                <mxCell id="qAOaCtNwMMRndqT1xe5G-19" value="Menampilkan response" style="whiteSpace=wrap;html=1;fillColor=none;rounded=1;" vertex="1" parent="qAOaCtNwMMRndqT1xe5G-2">
                    <mxGeometry x="100" y="530" width="120" height="60" as="geometry"/>
                </mxCell>
                <mxCell id="qAOaCtNwMMRndqT1xe5G-20" style="edgeStyle=none;html=1;entryX=0.5;entryY=0;entryDx=0;entryDy=0;" edge="1" parent="qAOaCtNwMMRndqT1xe5G-2" source="qAOaCtNwMMRndqT1xe5G-21" target="qAOaCtNwMMRndqT1xe5G-9">
                    <mxGeometry relative="1" as="geometry"/>
                </mxCell>
                <mxCell id="qAOaCtNwMMRndqT1xe5G-21" value="" style="html=1;points=[];perimeter=orthogonalPerimeter;fillColor=strokeColor;direction=south;" vertex="1" parent="qAOaCtNwMMRndqT1xe5G-2">
                    <mxGeometry x="120" y="650" width="80" height="5" as="geometry"/>
                </mxCell>
                <mxCell id="qAOaCtNwMMRndqT1xe5G-22" value="API" style="swimlane;startSize=20;whiteSpace=wrap;html=1;" vertex="1" parent="1">
                    <mxGeometry x="400" y="100" width="320" height="780" as="geometry"/>
                </mxCell>
                <mxCell id="qAOaCtNwMMRndqT1xe5G-23" style="edgeStyle=none;html=1;entryX=0.5;entryY=0;entryDx=0;entryDy=0;" edge="1" parent="qAOaCtNwMMRndqT1xe5G-22" source="qAOaCtNwMMRndqT1xe5G-24" target="qAOaCtNwMMRndqT1xe5G-27">
                    <mxGeometry relative="1" as="geometry"/>
                </mxCell>
                <mxCell id="qAOaCtNwMMRndqT1xe5G-24" value="Validasi input" style="whiteSpace=wrap;html=1;fillColor=none;rounded=1;" vertex="1" parent="qAOaCtNwMMRndqT1xe5G-22">
                    <mxGeometry x="100" y="310" width="120" height="60" as="geometry"/>
                </mxCell>
                <mxCell id="qAOaCtNwMMRndqT1xe5G-27" value="" style="rhombus;whiteSpace=wrap;html=1;fillColor=#fff2cc;strokeColor=#d6b656;" vertex="1" parent="qAOaCtNwMMRndqT1xe5G-22">
                    <mxGeometry x="131" y="421" width="58" height="58" as="geometry"/>
                </mxCell>
                <mxCell id="qAOaCtNwMMRndqT1xe5G-28" value="Mengupdate data di database" style="whiteSpace=wrap;html=1;fillColor=none;rounded=1;" vertex="1" parent="qAOaCtNwMMRndqT1xe5G-22">
                    <mxGeometry x="100" y="530" width="120" height="60" as="geometry"/>
                </mxCell>
                <mxCell id="qAOaCtNwMMRndqT1xe5G-30" style="edgeStyle=none;html=1;entryX=1;entryY=0.5;entryDx=0;entryDy=0;" edge="1" parent="1" source="qAOaCtNwMMRndqT1xe5G-27" target="qAOaCtNwMMRndqT1xe5G-17">
                    <mxGeometry relative="1" as="geometry"/>
                </mxCell>
                <mxCell id="qAOaCtNwMMRndqT1xe5G-31" value="Tidak valid" style="edgeLabel;html=1;align=center;verticalAlign=middle;resizable=0;points=[];" vertex="1" connectable="0" parent="qAOaCtNwMMRndqT1xe5G-30">
                    <mxGeometry x="-0.5266" y="-1" relative="1" as="geometry">
                        <mxPoint as="offset"/>
                    </mxGeometry>
                </mxCell>
                <mxCell id="qAOaCtNwMMRndqT1xe5G-32" style="edgeStyle=none;html=1;entryX=1;entryY=0.5;entryDx=0;entryDy=0;" edge="1" parent="1" source="qAOaCtNwMMRndqT1xe5G-28" target="qAOaCtNwMMRndqT1xe5G-19">
                    <mxGeometry relative="1" as="geometry"/>
                </mxCell>
                <mxCell id="qAOaCtNwMMRndqT1xe5G-33" style="edgeStyle=orthogonalEdgeStyle;rounded=0;html=1;entryX=0;entryY=0.5;entryDx=0;entryDy=0;" edge="1" parent="1" source="qAOaCtNwMMRndqT1xe5G-14" target="qAOaCtNwMMRndqT1xe5G-24">
                    <mxGeometry relative="1" as="geometry"/>
                </mxCell>
                <mxCell id="Em27VeKcSYQ-7YvmtXeD-1" value="Midtrans" style="swimlane;startSize=20;whiteSpace=wrap;html=1;" vertex="1" parent="1">
                    <mxGeometry x="720" y="100" width="320" height="780" as="geometry"/>
                </mxCell>
                <mxCell id="Em27VeKcSYQ-7YvmtXeD-9" style="edgeStyle=orthogonalEdgeStyle;rounded=0;html=1;entryX=0.5;entryY=0;entryDx=0;entryDy=0;" edge="1" parent="Em27VeKcSYQ-7YvmtXeD-1" source="Em27VeKcSYQ-7YvmtXeD-3" target="Em27VeKcSYQ-7YvmtXeD-7">
                    <mxGeometry relative="1" as="geometry"/>
                </mxCell>
                <mxCell id="Em27VeKcSYQ-7YvmtXeD-3" value="Request Transaction Status" style="whiteSpace=wrap;html=1;fillColor=none;rounded=1;" vertex="1" parent="Em27VeKcSYQ-7YvmtXeD-1">
                    <mxGeometry x="100" y="420" width="120" height="60" as="geometry"/>
                </mxCell>
                <mxCell id="Em27VeKcSYQ-7YvmtXeD-7" value="Return Response" style="whiteSpace=wrap;html=1;fillColor=none;rounded=1;" vertex="1" parent="Em27VeKcSYQ-7YvmtXeD-1">
                    <mxGeometry x="100" y="530" width="120" height="60" as="geometry"/>
                </mxCell>
                <mxCell id="Em27VeKcSYQ-7YvmtXeD-8" style="edgeStyle=orthogonalEdgeStyle;rounded=0;html=1;entryX=0;entryY=0.5;entryDx=0;entryDy=0;" edge="1" parent="1" source="qAOaCtNwMMRndqT1xe5G-27" target="Em27VeKcSYQ-7YvmtXeD-3">
                    <mxGeometry relative="1" as="geometry"/>
                </mxCell>
                <mxCell id="6vDwIWsARpUtGacE6LTf-1" value="Valid" style="edgeLabel;html=1;align=center;verticalAlign=middle;resizable=0;points=[];" vertex="1" connectable="0" parent="Em27VeKcSYQ-7YvmtXeD-8">
                    <mxGeometry x="-0.6177" y="1" relative="1" as="geometry">
                        <mxPoint as="offset"/>
                    </mxGeometry>
                </mxCell>
                <mxCell id="Em27VeKcSYQ-7YvmtXeD-10" style="edgeStyle=orthogonalEdgeStyle;rounded=0;html=1;entryX=1;entryY=0.5;entryDx=0;entryDy=0;" edge="1" parent="1" source="Em27VeKcSYQ-7YvmtXeD-7" target="qAOaCtNwMMRndqT1xe5G-28">
                    <mxGeometry relative="1" as="geometry"/>
                </mxCell>
            </root>
        </mxGraphModel>
    </diagram>
    <diagram id="V6SrPSC5pvv_3hHvY_e0" name="Cek Riwayat Transaksi">
        <mxGraphModel dx="795" dy="695" grid="1" gridSize="10" guides="1" tooltips="1" connect="1" arrows="1" fold="1" page="1" pageScale="1" pageWidth="850" pageHeight="1100" math="0" shadow="0">
            <root>
                <mxCell id="0"/>
                <mxCell id="1" parent="0"/>
                <mxCell id="RO3et_CFCxh4GaSkZPku-1" value="Proses&amp;nbsp;Cek Riwayat Transaksi" style="swimlane;whiteSpace=wrap;html=1;" vertex="1" parent="1">
                    <mxGeometry x="80" y="80" width="640" height="560" as="geometry"/>
                </mxCell>
                <mxCell id="RO3et_CFCxh4GaSkZPku-2" value="Mobile" style="swimlane;startSize=20;whiteSpace=wrap;html=1;" vertex="1" parent="RO3et_CFCxh4GaSkZPku-1">
                    <mxGeometry y="20" width="320" height="540" as="geometry"/>
                </mxCell>
                <mxCell id="RO3et_CFCxh4GaSkZPku-3" style="edgeStyle=none;html=1;entryX=0.5;entryY=0;entryDx=0;entryDy=0;" edge="1" parent="RO3et_CFCxh4GaSkZPku-2" target="RO3et_CFCxh4GaSkZPku-6">
                    <mxGeometry relative="1" as="geometry">
                        <mxPoint x="160" y="82" as="sourcePoint"/>
                    </mxGeometry>
                </mxCell>
                <mxCell id="RO3et_CFCxh4GaSkZPku-4" value="Start" style="edgeLabel;html=1;align=center;verticalAlign=middle;resizable=0;points=[];" vertex="1" connectable="0" parent="RO3et_CFCxh4GaSkZPku-3">
                    <mxGeometry x="-0.2567" relative="1" as="geometry">
                        <mxPoint y="3" as="offset"/>
                    </mxGeometry>
                </mxCell>
                <mxCell id="RO3et_CFCxh4GaSkZPku-5" value="" style="edgeStyle=none;html=1;" edge="1" parent="RO3et_CFCxh4GaSkZPku-2" source="RO3et_CFCxh4GaSkZPku-6" target="RO3et_CFCxh4GaSkZPku-8">
                    <mxGeometry relative="1" as="geometry"/>
                </mxCell>
                <mxCell id="RO3et_CFCxh4GaSkZPku-6" value="Login" style="rounded=1;whiteSpace=wrap;html=1;fillColor=none;" vertex="1" parent="RO3et_CFCxh4GaSkZPku-2">
                    <mxGeometry x="100" y="129" width="120" height="60" as="geometry"/>
                </mxCell>
                <mxCell id="RO3et_CFCxh4GaSkZPku-8" value="Klik tombol Riwayat" style="whiteSpace=wrap;html=1;fillColor=none;rounded=1;" vertex="1" parent="RO3et_CFCxh4GaSkZPku-2">
                    <mxGeometry x="100" y="219" width="120" height="60" as="geometry"/>
                </mxCell>
                <mxCell id="RO3et_CFCxh4GaSkZPku-9" value="" style="ellipse;html=1;shape=endState;fillColor=#000000;strokeColor=#ff0000;" vertex="1" parent="RO3et_CFCxh4GaSkZPku-2">
                    <mxGeometry x="145" y="450" width="30" height="30" as="geometry"/>
                </mxCell>
                <mxCell id="RO3et_CFCxh4GaSkZPku-10" value="" style="edgeStyle=orthogonalEdgeStyle;rounded=0;html=1;exitX=0.5;exitY=1;exitDx=0;exitDy=0;" edge="1" parent="RO3et_CFCxh4GaSkZPku-2" source="RO3et_CFCxh4GaSkZPku-11" target="RO3et_CFCxh4GaSkZPku-6">
                    <mxGeometry relative="1" as="geometry"/>
                </mxCell>
                <mxCell id="RO3et_CFCxh4GaSkZPku-11" value="" style="ellipse;whiteSpace=wrap;html=1;fillColor=#000000;strokeColor=#ff0000;" vertex="1" parent="RO3et_CFCxh4GaSkZPku-2">
                    <mxGeometry x="135" y="30" width="50" height="50" as="geometry"/>
                </mxCell>
                <mxCell id="RO3et_CFCxh4GaSkZPku-12" value="End" style="text;html=1;strokeColor=none;fillColor=none;align=center;verticalAlign=middle;whiteSpace=wrap;rounded=0;" vertex="1" parent="RO3et_CFCxh4GaSkZPku-2">
                    <mxGeometry x="130" y="480" width="60" height="30" as="geometry"/>
                </mxCell>
                <mxCell id="RO3et_CFCxh4GaSkZPku-33" style="edgeStyle=orthogonalEdgeStyle;rounded=0;html=1;entryX=0.5;entryY=0;entryDx=0;entryDy=0;" edge="1" parent="RO3et_CFCxh4GaSkZPku-2" source="RO3et_CFCxh4GaSkZPku-17" target="RO3et_CFCxh4GaSkZPku-9">
                    <mxGeometry relative="1" as="geometry"/>
                </mxCell>
                <mxCell id="RO3et_CFCxh4GaSkZPku-17" value="Menampilkan response" style="whiteSpace=wrap;html=1;fillColor=none;rounded=1;" vertex="1" parent="RO3et_CFCxh4GaSkZPku-2">
                    <mxGeometry x="100" y="330" width="120" height="60" as="geometry"/>
                </mxCell>
                <mxCell id="RO3et_CFCxh4GaSkZPku-20" value="API" style="swimlane;startSize=20;whiteSpace=wrap;html=1;" vertex="1" parent="1">
                    <mxGeometry x="400" y="100" width="320" height="540" as="geometry"/>
                </mxCell>
                <mxCell id="RO3et_CFCxh4GaSkZPku-22" value="Get data transaksi" style="whiteSpace=wrap;html=1;fillColor=none;rounded=1;" vertex="1" parent="RO3et_CFCxh4GaSkZPku-20">
                    <mxGeometry x="100" y="219" width="120" height="60" as="geometry"/>
                </mxCell>
                <mxCell id="RO3et_CFCxh4GaSkZPku-31" style="edgeStyle=orthogonalEdgeStyle;rounded=0;html=1;entryX=0;entryY=0.5;entryDx=0;entryDy=0;" edge="1" parent="1" source="RO3et_CFCxh4GaSkZPku-8" target="RO3et_CFCxh4GaSkZPku-22">
                    <mxGeometry relative="1" as="geometry"/>
                </mxCell>
                <mxCell id="RO3et_CFCxh4GaSkZPku-32" style="edgeStyle=orthogonalEdgeStyle;rounded=0;html=1;entryX=1;entryY=0.5;entryDx=0;entryDy=0;" edge="1" parent="1" source="RO3et_CFCxh4GaSkZPku-22" target="RO3et_CFCxh4GaSkZPku-17">
                    <mxGeometry relative="1" as="geometry">
                        <Array as="points">
                            <mxPoint x="560" y="460"/>
                        </Array>
                    </mxGeometry>
                </mxCell>
            </root>
        </mxGraphModel>
    </diagram>
</mxfile>